<svg width="100" height="100" viewBox="0 0 100 100" fill="none" xmlns="http://www.w3.org/2000/svg">
<path d="M49.6025 4.6188L88.9038 27.3094V72.6906L49.6025 95.3812L10.3013 72.6906V27.3094L49.6025 4.6188Z" stroke="#F19D1E" stroke-width="8"></path>
<path d="M64.8356 58.0554C62.2157 58.0554 59.8723 57.7457 57.8054 57.1263C56.7338 56.8052 55.7365 56.4008 54.8136 55.9132C52.6762 54.7841 50.9534 53.3361 49.6451 51.5692C49.2988 51.1014 48.9815 50.6113 48.6932 50.0989C48.5311 49.7997 48.3789 49.4966 48.2367 49.1898C47.215 46.9861 46.7041 44.586 46.7041 41.9894C46.7041 41.3042 46.7397 40.6339 46.8108 39.9788C47.0469 37.8057 47.6743 35.7983 48.6932 33.9565C50.0193 31.5593 51.9064 29.6467 54.3545 28.2186C56.8027 26.7395 59.6843 26 62.9995 26C66.3657 26 69.2474 26.7395 71.6445 28.2186C74.0927 29.6467 75.9543 31.5593 77.2294 33.9565C78.5554 36.3536 79.2185 39.0313 79.2185 41.9894V45.2791H50.9883V39.1588H71.7976C71.7976 38.0367 71.4405 36.9401 70.7265 35.8691C70.0634 34.747 69.0689 33.8035 67.7428 33.0384C66.4677 32.2734 64.8867 31.8908 62.9995 31.8908C61.1124 31.8908 59.5058 32.2989 58.1798 33.1149C56.9047 33.88 55.9101 34.8745 55.1961 36.0986C54.533 37.3227 54.2015 38.5722 54.2015 39.8473V41.9894C54.2015 44.8966 55.0941 47.2172 56.8792 48.9513C58.6643 50.6854 61.3929 51.5525 65.0652 51.5525C67.2073 51.5525 69.2219 51.221 71.109 50.5579C72.9961 49.8439 74.5517 48.9258 75.7758 47.8038L78.989 53.3886C77.4079 54.8167 75.3678 55.9642 72.8686 56.8313C70.3695 57.6473 67.6918 58.0554 64.8356 58.0554Z" fill="#F19D1E"></path>
<path d="M33.0028 40.3677H20.6855V46.2585H25.8113V78.0844L33.6148 83.5V67.3848C33.2144 66.8866 32.8574 66.3474 32.5437 65.7672H33.6148V67.3848C34.5167 68.5071 35.6388 69.4215 36.981 70.1279C38.9701 71.148 41.0357 71.658 43.1779 71.658C46.442 71.658 49.1452 70.8929 51.2873 69.3629C53.4805 67.7818 55.1126 65.7672 56.1836 63.319C57.0915 61.3382 57.632 59.274 57.8054 57.1263C56.7338 56.8052 55.7365 56.4008 54.8136 55.9132C52.6762 54.7841 50.9534 53.3361 49.6451 51.5692C50.0769 52.727 50.2928 54.0679 50.2928 55.5921C50.2928 58.6012 49.4512 60.9219 47.7681 62.554C46.085 64.1861 44.0449 65.0021 41.6478 65.0021C40.1177 65.0021 38.6131 64.6961 37.134 64.084C35.8594 63.5378 34.6863 62.6664 33.6148 61.47V64.2371L33.2323 61.0239C33.3583 61.1773 33.4858 61.326 33.6148 61.47V49.7759C33.4858 49.9242 33.3583 50.0778 33.2323 50.2367L33.6148 47.3296V49.7759C34.6863 48.5438 35.8594 47.6773 37.134 47.1766C38.6131 46.5645 40.1177 46.2585 41.6478 46.2585C44.0449 46.2585 46.085 47.0746 47.7681 48.7067C47.9323 48.8609 48.0885 49.0219 48.2367 49.1898C47.215 46.9861 46.7041 44.586 46.7041 41.9894C46.7041 41.3042 46.7397 40.6339 46.8108 39.9788C45.6888 39.728 44.4778 39.6026 43.1779 39.6026C41.0357 39.6026 38.9701 40.1127 36.981 41.1327C35.3162 41.9651 33.9902 43.1549 33.0028 44.7023V45.4935H32.5437C32.6876 45.2201 32.8406 44.9564 33.0028 44.7023V40.3677Z" fill="#F19D1E"></path>
<path fill-rule="evenodd" clip-rule="evenodd" d="M48.2367 49.1898C48.3789 49.4966 48.5311 49.7997 48.6932 50.0989C48.9815 50.6113 49.2988 51.1014 49.6451 51.5692C49.3076 50.6641 48.8381 49.871 48.2367 49.1898ZM33.2323 50.2367C33.3583 50.0778 33.4858 49.9242 33.6148 49.7759V47.3296L33.2323 50.2367ZM33.6148 64.2371V61.47C33.4858 61.326 33.3583 61.1773 33.2323 61.0239L33.6148 64.2371Z" fill="#F19D1E"></path>
<path d="M33.6148 65.7672H32.5437C32.8574 66.3474 33.2144 66.8866 33.6148 67.3848V65.7672Z" fill="#F19D1E"></path>
<path d="M32.5437 45.4935H33.0028V44.7023C32.8406 44.9564 32.6876 45.2201 32.5437 45.4935Z" fill="#F19D1E"></path>
</svg>