<svg viewBox="0 0 215 107" fill="none" xmlns="http://www.w3.org/2000/svg">
<path d="M0 106.66V100.708H10.224V41.3322H0V35.3802H17.136V53.6682L16.944 59.1402V62.1642L17.136 66.4842V100.708H27.168V106.66H0ZM36.432 87.4602C32.208 87.4602 28.416 86.5322 25.056 84.6762C21.728 82.8202 18.976 80.1802 16.8 76.7562C14.624 73.3002 13.184 69.1722 12.48 64.3722L16.944 61.0602C16.944 64.9962 17.696 68.4842 19.2 71.5242C20.704 74.5322 22.864 76.9002 25.68 78.6282C28.496 80.3562 31.84 81.2202 35.712 81.2202C39.52 81.2202 42.832 80.3562 45.648 78.6282C48.464 76.9002 50.624 74.5162 52.128 71.4762C53.664 68.4042 54.432 64.9002 54.432 60.9642C54.432 56.9642 53.648 53.4442 52.08 50.4042C50.512 47.3642 48.32 44.9802 45.504 43.2522C42.688 41.4922 39.424 40.6122 35.712 40.6122C31.904 40.6122 28.592 41.4922 25.776 43.2522C22.96 44.9802 20.784 47.3802 19.248 50.4522C17.712 53.5242 16.944 57.0602 16.944 61.0602L15.84 50.1642H17.472C18.048 47.3482 19.168 44.7562 20.832 42.3882C22.496 39.9882 24.688 38.0682 27.408 36.6282C30.16 35.1562 33.424 34.4202 37.2 34.4202C40.784 34.4202 44.064 35.0762 47.04 36.3882C50.016 37.6682 52.576 39.5082 54.72 41.9082C56.896 44.2762 58.576 47.0762 59.76 50.3082C60.976 53.5402 61.584 57.0922 61.584 60.9642C61.584 66.1162 60.544 70.6922 58.464 74.6922C56.384 78.6922 53.456 81.8282 49.68 84.1002C45.936 86.3402 41.52 87.4602 36.432 87.4602Z" fill="#F8E4D5"/>
<path d="M72.912 59.9641C67.632 59.9641 63.056 58.8441 59.184 56.6041C55.312 54.3641 52.32 51.2761 50.208 47.3401C48.096 43.3721 47.04 38.8121 47.04 33.6601C47.04 28.4441 48.096 23.8361 50.208 19.8361C52.352 15.8361 55.328 12.7001 59.136 10.4281C62.976 8.15613 67.44 7.02013 72.528 7.02013C77.648 7.02013 82.08 8.14013 85.824 10.3801C89.568 12.6201 92.448 15.7241 94.464 19.6921C96.48 23.6601 97.488 28.2361 97.488 33.4201C97.488 34.0281 97.472 34.5081 97.44 34.8601C97.44 35.2121 97.408 35.5161 97.344 35.7721H90.528C90.56 35.3881 90.576 34.9721 90.576 34.5241C90.608 34.0441 90.624 33.5001 90.624 32.8921C90.624 29.0841 89.888 25.7081 88.416 22.7641C86.976 19.7881 84.912 17.4521 82.224 15.7561C79.536 14.0601 76.304 13.2121 72.528 13.2121C68.848 13.2121 65.616 14.0921 62.832 15.8521C60.048 17.5801 57.888 19.9801 56.352 23.0521C54.816 26.0921 54.048 29.6281 54.048 33.6601C54.048 37.5641 54.8 41.0201 56.304 44.0281C57.84 47.0041 60.016 49.3401 62.832 51.0361C65.648 52.7321 68.992 53.5801 72.864 53.5801C76.896 53.5801 80.384 52.6361 83.328 50.7481C86.304 48.8281 88.512 46.2201 89.952 42.9241L96.48 45.3721C92.7576 48.5 86.1164 49.9781 87.408 56.0761C83.28 58.6681 78.448 59.9641 72.912 59.9641ZM51.408 35.7721V30.4441H95.28L97.296 35.7721H51.408Z" fill="#F8E4D5"/>
<path d="M105.748 94.5C102.324 94.5 99.4284 93.988 97.0604 92.964C94.7244 91.94 92.8684 90.58 91.4924 88.884C90.1164 87.156 89.2204 85.236 88.8044 83.124H87.0764L88.4684 77.46C89.0764 80.82 90.7404 83.556 93.4604 85.668C96.2124 87.78 99.7804 88.836 104.164 88.836C107.908 88.836 110.804 88.084 112.852 86.58C114.932 85.044 115.972 82.82 115.972 79.908C115.972 77.252 114.948 75.188 112.9 73.716C110.852 72.244 107.268 71.124 102.148 70.356C94.8204 69.204 89.6044 67.396 86.5004 64.932C83.3964 62.436 81.8444 59.156 81.8444 55.092C81.8444 50.996 83.2684 47.716 86.1164 45.252C88.9644 42.788 92.9324 41.556 98.0204 41.556C101.38 41.556 104.148 42.068 106.324 43.092C108.532 44.116 110.228 45.492 111.412 47.22C112.596 48.916 113.364 50.788 113.716 52.836H115.444L114.052 58.26C113.476 54.996 111.908 52.34 109.348 50.292C106.788 48.212 103.444 47.172 99.3164 47.172C95.9884 47.172 93.3804 47.876 91.4924 49.284C89.6364 50.692 88.7084 52.564 88.7084 54.9C88.7084 57.364 89.8764 59.3 92.2124 60.708C94.5484 62.084 98.2284 63.172 103.252 63.972C110.356 65.092 115.396 66.932 118.372 69.492C121.348 72.052 122.836 75.508 122.836 79.86C122.836 84.436 121.364 88.02 118.42 90.612C115.508 93.204 111.284 94.5 105.748 94.5ZM81.5564 93.588V77.46H88.4684V93.588H81.5564ZM114.052 58.26V42.468H120.964L118.372 50.16L120.964 58.26H114.052Z" fill="#F8E4D5"/>
<path d="M157.3 75.84V56.736L157.588 52.992V46.896L157.3 40.176V5.952H143.524V0H164.212V70.272H173.99L173.9 75.5L157.3 75.84ZM138.052 23.76C142.276 23.76 146.052 24.688 149.38 26.544C152.74 28.4 155.508 31.056 157.684 34.512C159.86 37.936 161.3 42.048 162.004 46.848L157.588 50.16C157.588 46.224 156.82 42.736 155.284 39.696C153.78 36.656 151.62 34.288 148.804 32.592C145.988 30.864 142.644 30 138.772 30C134.964 30 131.652 30.864 128.836 32.592C126.02 34.32 123.844 36.704 122.308 39.744C120.804 42.784 120.052 46.304 120.052 50.304C120.052 54.272 120.836 57.776 122.404 60.816C123.972 63.856 126.164 66.256 128.98 68.016C131.828 69.744 135.092 70.608 138.772 70.608C142.612 70.608 145.924 69.744 148.708 68.016C151.524 66.256 153.7 63.84 155.236 60.768C156.804 57.696 157.588 54.16 157.588 50.16L158.644 61.056H157.012C156.436 63.872 155.316 66.48 153.652 68.88C151.988 71.248 149.796 73.168 147.076 74.64C144.356 76.08 141.092 76.8 137.284 76.8C133.732 76.8 130.468 76.16 127.492 74.88C124.516 73.568 121.94 71.728 119.764 69.36C117.588 66.96 115.892 64.144 114.676 60.912C113.492 57.68 112.9 54.144 112.9 50.304C112.9 45.12 113.94 40.528 116.02 36.528C118.1 32.528 121.012 29.408 124.756 27.168C128.532 24.896 132.964 23.76 138.052 23.76Z" fill="#F8E4D5"/>
<path d="M190.084 99.792C184.804 99.792 180.228 98.672 176.356 96.432C172.484 94.192 169.492 91.104 167.38 87.168C165.268 83.2 164.212 78.64 164.212 73.488C164.212 68.272 165.268 63.664 167.38 59.664C169.524 55.664 172.5 52.528 176.308 50.256C180.148 47.984 184.612 46.848 189.7 46.848C194.82 46.848 199.252 47.968 202.996 50.208C206.74 52.448 209.62 55.552 211.636 59.52C213.652 63.488 214.66 68.064 214.66 73.248C214.66 73.856 214.644 74.336 214.612 74.688C214.612 75.04 214.58 75.344 214.516 75.6H207.7C207.732 75.216 207.748 74.8 207.748 74.352C207.78 73.872 207.796 73.328 207.796 72.72C207.796 68.912 207.06 65.536 205.588 62.592C204.148 59.616 202.084 57.28 199.396 55.584C196.708 53.888 193.476 53.04 189.7 53.04C186.02 53.04 182.788 53.92 180.004 55.68C177.22 57.408 175.06 59.808 173.524 62.88C171.988 65.92 171.22 69.456 171.22 73.488C171.22 77.392 171.972 80.848 173.476 83.856C175.012 86.832 177.188 89.168 180.004 90.864C182.82 92.56 186.164 93.408 190.036 93.408C194.068 93.408 197.556 92.464 200.5 90.576C203.476 88.656 205.684 86.048 207.124 82.752L213.652 85.2C211.764 89.712 208.74 93.28 204.58 95.904C200.452 98.496 195.62 99.792 190.084 99.792ZM168.58 75.6V70.272H212.452L214.468 75.6H168.58Z" fill="#F8E4D5"/>
</svg>
