<?xml version="1.0" standalone="no"?>
<!DOCTYPE svg PUBLIC "-//W3C//DTD SVG 20010904//EN"
 "http://www.w3.org/TR/2001/REC-SVG-20010904/DTD/svg10.dtd">
<svg version="1.0" xmlns="http://www.w3.org/2000/svg"
 width="512.000000pt" height="512.000000pt" viewBox="0 0 512.000000 512.000000"
 preserveAspectRatio="xMidYMid meet">
<metadata>
Created by potrace 1.14, written by Peter Selinger 2001-2017
</metadata>
<g transform="translate(0.000000,512.000000) scale(0.100000,-0.100000)"
fill="#000000" stroke="none">
<path d="M2320 5110 c-406 -39 -821 -184 -1154 -404 -642 -422 -1046 -1069
-1148 -1836 -16 -123 -16 -509 0 -625 65 -459 233 -873 501 -1230 92 -122 304
-341 426 -440 368 -299 822 -493 1305 -557 123 -16 509 -16 625 0 459 65 873
233 1230 501 122 92 341 304 440 426 299 368 493 822 557 1305 16 123 16 509
0 625 -69 486 -254 922 -551 1294 -406 507 -1012 845 -1671 931 -115 15 -443
21 -560 10z m585 -255 c756 -118 1400 -589 1735 -1270 108 -219 173 -428 217
-690 25 -154 25 -513 -1 -675 -109 -693 -514 -1296 -1112 -1654 -252 -150
-534 -251 -849 -303 -154 -25 -513 -25 -675 1 -419 66 -824 247 -1135 508
-452 379 -724 859 -822 1453 -25 154 -25 513 1 675 119 762 588 1404 1271
1740 256 126 526 202 830 234 85 9 444 -4 540 -19z"/>
<path d="M3570 4144 c-219 -47 -388 -224 -434 -452 -8 -41 -17 -76 -19 -79 -3
-2 -19 3 -35 11 -84 43 -205 68 -353 73 -161 6 -264 -9 -369 -51 -210 -86
-384 -285 -445 -511 -10 -36 -22 -62 -26 -59 -5 3 -9 135 -9 295 l0 289 -340
0 -340 0 0 -115 0 -115 205 0 205 0 0 -1190 0 -1190 -205 0 -205 0 0 -115 0
-115 545 0 545 0 0 115 0 115 -202 2 -203 3 -3 463 c-1 254 1 462 5 462 5 0
19 -17 33 -37 38 -56 144 -158 212 -204 223 -152 528 -196 819 -120 256 68
471 244 593 488 90 180 121 339 113 583 -3 91 -10 181 -15 200 l-9 35 101 1
c174 2 302 50 414 158 59 56 122 145 122 172 0 15 -144 68 -148 54 -2 -5 -23
-37 -47 -69 -83 -113 -191 -164 -345 -165 -136 -1 -139 0 -184 91 -53 107
-100 176 -175 255 l-63 68 497 0 498 0 -6 98 c-8 118 -25 184 -73 281 -109
221 -379 335 -654 275z m285 -149 c69 -20 152 -80 197 -144 37 -53 74 -149 80
-206 l3 -30 -422 -3 c-485 -3 -438 -14 -403 101 72 233 299 351 545 282z
m-1035 -560 c36 -9 103 -34 150 -57 117 -58 247 -186 309 -306 109 -211 128
-494 51 -735 -40 -125 -90 -207 -185 -302 -63 -64 -98 -90 -165 -123 -141 -69
-301 -94 -461 -73 -311 41 -527 233 -611 543 -20 73 -23 106 -22 263 0 167 2
187 28 270 44 143 98 238 191 330 90 90 160 135 266 171 134 45 304 52 449 19z"/>
</g>
</svg>
